HIERARCHY
ROOT Hips
{
  OFFSET 0.000000 0.000000 0.000000
  CHANNELS 6 Xposition Yposition Zposition Xrotation Yrotation Zrotation
  JOINT Spine
  {
    OFFSET 0.211591 24.227834 -3.764787
    CHANNELS 3 Xrotation Yrotation Zrotation
    JOINT Chest
    {
      OFFSET 0.211591 24.227834 -3.764787
      CHANNELS 3 Xrotation Yrotation Zrotation
      JOINT Neck
      {
        OFFSET -1.100772 8.441563 -3.430650
        CHANNELS 3 Xrotation Yrotation Zrotation
        JOINT Head
        {
          OFFSET -1.192129 7.757112 -7.601908
          CHANNELS 3 Xrotation Yrotation Zrotation
          End Site
          {
            OFFSET -0.357639 2.327134 -2.280572
          }
        }
      }
      JOINT LeftShoulder
      {
        OFFSET 17.192089 0.613400 -1.554494
        CHANNELS 3 Xrotation Yrotation Zrotation
        JOINT LeftArm
        {
          OFFSET 6.822346 -20.001605 -11.416031
          CHANNELS 3 Xrotation Yrotation Zrotation
          JOINT LeftForeArm
          {
            OFFSET -10.811707 -3.287858 -20.004664
            CHANNELS 3 Xrotation Yrotation Zrotation
            JOINT LeftHand
            {
              OFFSET -2.972239 -0.032078 -2.791873
              CHANNELS 3 Xrotation Yrotation Zrotation
              End Site
              {
                OFFSET -0.891672 -0.009623 -0.837562
              }
            }
          }
        }
      }
      JOINT RightShoulder
      {
        OFFSET -17.192089 -0.613400 1.554494
        CHANNELS 3 Xrotation Yrotation Zrotation
        JOINT RightArm
        {
          OFFSET -7.078612 -20.128798 -9.457155
          CHANNELS 3 Xrotation Yrotation Zrotation
          JOINT RightForeArm
          {
            OFFSET 6.068787 -1.370308 -22.325569
            CHANNELS 3 Xrotation Yrotation Zrotation
            JOINT RightHand
            {
              OFFSET 2.627653 0.279547 -3.282648
              CHANNELS 3 Xrotation Yrotation Zrotation
              End Site
              {
                OFFSET 0.788296 0.083864 -0.984794
              }
            }
          }
        }
      }
    }
  }
  JOINT LeftUpLeg
  {
    OFFSET 11.367086 0.027478 -2.758015
    CHANNELS 3 Xrotation Yrotation Zrotation
    JOINT LeftLeg
    {
      OFFSET 2.451199 -39.057141 -4.768226
      CHANNELS 3 Xrotation Yrotation Zrotation
      JOINT LeftFoot
      {
        OFFSET 10.058204 -39.973237 0.774249
        CHANNELS 3 Xrotation Yrotation Zrotation
        End Site
        {
          OFFSET 3.017461 -11.991971 0.232275
        }
      }
    }
  }
  JOINT RightUpLeg
  {
    OFFSET -11.367086 -0.027478 2.758015
    CHANNELS 3 Xrotation Yrotation Zrotation
    JOINT RightLeg
    {
      OFFSET -4.668361 -37.080477 -5.635053
      CHANNELS 3 Xrotation Yrotation Zrotation
      JOINT RightFoot
      {
        OFFSET -2.542494 -41.040053 5.594103
        CHANNELS 3 Xrotation Yrotation Zrotation
        End Site
        {
          OFFSET -0.762748 -12.312016 1.678231
        }
      }
    }
  }
}
MOTION
Frames: 21
Frame Time: 0.083333
0.000000 60.000000 0.000000 -0.697435 0.072172 0.388394 -0.697435 0.072172 0.388394 -0.340980 -0.195332 -0.344975 -0.296376 -0.398572 -0.341483 5.000000 0.000000 0.000000 1.736840 0.323090 0.456205 7.645937 -0.590864 -0.773710 0.000000 0.000000 0.000000 0.000000 0.000000 0.000000 0.794111 -0.282190 0.002214 2.851025 -0.309081 0.159378 0.000000 0.000000 0.000000 0.000000 0.000000 0.000000 -0.709012 -0.056665 0.112734 -2.064574 -0.498257 0.307541 0.000000 0.000000 0.000000 -2.846786 0.362367 -0.073015 -1.383120 -0.023124 -0.661185 0.000000 0.000000 0.000000
0.404420 60.000253 1.105835 -0.696426 0.072060 0.387906 -0.696426 0.072060 0.387906 -0.347761 -0.205596 -0.365058 -0.302848 -0.423933 -0.363971 5.000000 0.000000 0.000000 1.727130 0.300571 0.481776 6.827943 -0.554870 -0.692341 0.000000 0.000000 0.000000 0.000000 0.000000 0.000000 1.046602 -0.311869 -0.114333 2.632807 -0.255006 0.145843 0.000000 0.000000 0.000000 0.000000 0.000000 0.000000 -0.708924 -0.060008 0.141638 -2.090989 -0.500619 0.364015 0.000000 0.000000 0.000000 -2.877802 0.367679 -0.090629 -1.406443 -0.022421 -0.664949 0.000000 0.000000 0.000000
1.336399 60.000836 4.095054 -0.696430 0.072041 0.387790 -0.696430 0.072041 0.387790 -0.347767 -0.205898 -0.365765 -0.302812 -0.424696 -0.364738 5.000000 0.000000 0.000000 4.794206 0.739373 1.475076 17.060041 -1.466984 -1.734552 0.000000 0.000000 0.000000 0.000000 0.000000 0.000000 3.649363 -0.860225 -0.830601 6.692520 -0.622859 0.367945 66.235849 -27.477344 23.418801 0.000000 0.000000 0.000000 -0.707699 -0.060162 0.142966 -2.092147 -0.500800 0.365193 0.000000 0.000000 0.000000 -2.878808 0.367926 -0.092188 -1.407409 -0.022408 -0.665174 0.000000 0.000000 0.000000
2.260113 60.001658 8.201629 -1.294159 0.154744 0.856547 -1.294159 0.154744 0.856547 -0.841446 -0.674735 -1.275659 -0.777218 -1.547596 -1.364929 5.000000 0.000000 0.000000 6.650384 0.772036 2.415794 19.823885 -1.949415 -2.029175 0.000000 0.000000 0.000000 0.000000 0.000000 0.000000 6.869982 -0.923422 -2.827398 7.819136 -0.812956 0.423600 0.000000 0.000000 0.000000 0.000000 0.000000 0.000000 -1.520277 -0.228853 1.181376 -5.488523 -1.255366 1.654653 0.000000 0.000000 0.000000 -6.770191 0.907336 -0.702355 -3.459781 -0.019794 -1.408286 0.000000 0.000000 0.000000
2.612822 60.002090 12.603205 -0.529289 0.100739 0.602086 -0.529289 0.100739 0.602086 -0.963472 -1.308405 -2.638304 -0.952551 -3.268303 -2.961799 5.000000 0.000000 0.000000 6.906099 0.839514 2.429007 21.794850 -2.389009 -2.254487 0.000000 0.000000 0.000000 0.000000 0.000000 0.000000 8.444821 -0.206886 -5.047744 7.566195 -1.362591 0.409243 73.499335 -13.507175 41.796385 0.000000 0.000000 0.000000 -0.572147 -0.498509 3.753499 -6.926790 -1.366019 4.761085 0.000000 0.000000 0.000000 -7.185594 1.104510 -2.491242 -4.341011 0.056665 -1.184575 0.000000 0.000000 0.000000
2.479909 60.002223 14.737109 -0.719232 0.011652 0.039165 -0.719232 0.011652 0.039165 -0.915651 -1.824368 -3.834526 -0.707609 -4.462796 -4.192512 5.000000 0.000000 0.000000 6.640249 2.103659 0.252094 26.258675 -3.192661 -2.782663 0.000000 0.000000 0.000000 0.000000 0.000000 0.000000 10.116491 -1.092803 -4.455325 8.775586 -1.955291 0.451782 0.000000 0.000000 0.000000 0.000000 0.000000 0.000000 3.237184 -0.725926 5.782046 -6.873252 -1.090841 7.936991 0.000000 0.000000 0.000000 -8.292002 1.422437 -5.300529 -6.548473 -0.015709 -1.944440 0.000000 0.000000 0.000000
2.522454 60.002300 14.161507 -1.190066 -0.068065 -0.466524 -1.190066 -0.068065 -0.466524 -0.113632 -1.911121 -4.531263 0.375827 -4.741751 -4.910132 5.000000 0.000000 0.000000 3.164406 3.742121 -4.304008 30.540228 -3.536743 -3.317923 0.000000 0.000000 0.000000 0.000000 0.000000 0.000000 8.782881 -4.120402 1.484853 9.664541 -2.945604 0.448680 0.000000 0.000000 0.000000 0.000000 0.000000 0.000000 11.860719 -0.964390 7.419667 -7.183372 -1.302814 5.893982 0.000000 0.000000 0.000000 -10.093947 1.789925 -9.009855 -11.114571 -0.374635 -4.027023 0.000000 0.000000 0.000000
2.893939 60.003183 12.618531 -1.463879 -0.154012 -1.014424 -1.463879 -0.154012 -1.014424 0.224617 -2.125041 -5.260854 1.045489 -5.329271 -5.795990 5.000000 0.000000 0.000000 1.443481 3.957523 -5.782604 30.051932 -3.625038 -3.260207 0.000000 0.000000 0.000000 0.000000 0.000000 0.000000 8.859856 -6.508281 5.521737 12.337781 -3.689567 0.512384 0.000000 0.000000 0.000000 0.000000 0.000000 0.000000 20.010147 -1.054726 7.726859 -5.916803 -1.114625 5.108667 0.000000 0.000000 0.000000 -12.372041 1.989840 -10.595400 -17.805048 -0.797817 -6.493260 0.000000 0.000000 0.000000
3.489879 60.003117 10.741720 -0.270787 -0.320767 -2.114474 -0.270787 -0.320767 -2.114474 0.110713 -2.191496 -5.338415 0.883166 -5.552232 -5.957122 5.000000 0.000000 0.000000 2.178274 2.950089 -3.731381 27.858346 -2.740411 -2.959877 0.000000 0.000000 0.000000 0.000000 0.000000 0.000000 8.176562 -3.857581 1.459816 9.275641 -2.984115 0.450510 0.000000 0.000000 0.000000 0.000000 0.000000 0.000000 18.141132 -0.974585 7.520219 -6.640998 -1.231438 5.445202 0.000000 0.000000 0.000000 -10.038031 2.096304 -12.684470 -18.685530 -0.272062 -4.759726 0.000000 0.000000 0.000000
4.577485 60.001631 9.958374 1.189883 -0.588136 -4.016939 1.189883 -0.588136 -4.016939 -0.227710 -1.985088 -4.619866 0.041458 -4.911907 -4.935824 5.000000 0.000000 0.000000 5.772406 2.054348 -0.074071 27.694708 -2.009439 -2.933814 0.000000 0.000000 0.000000 0.000000 0.000000 0.000000 6.351122 -1.550275 -1.395541 6.307643 -1.835459 0.345853 0.000000 0.000000 0.000000 0.000000 0.000000 0.000000 11.624341 -1.049882 7.902998 -8.942728 -1.588938 6.589941 0.000000 0.000000 0.000000 -4.458285 2.252650 -15.189797 -16.243905 0.253930 -2.802456 0.000000 0.000000 0.000000
5.349533 60.000595 9.013909 3.099376 -0.568994 -4.214054 3.099376 -0.568994 -4.214054 -0.499573 -1.684588 -3.752482 -0.758756 -4.122635 -3.844046 5.000000 0.000000 0.000000 7.537666 1.490067 1.780019 16.622453 -2.165815 -1.625163 0.000000 0.000000 0.000000 0.000000 0.000000 0.000000 4.461518 -0.244529 -2.517546 1.313863 -0.909080 0.098354 0.000000 0.000000 0.000000 0.000000 0.000000 0.000000 7.809837 -1.017278 7.899349 -9.470550 -1.484271 8.525750 0.000000 0.000000 0.000000 -2.138107 2.389561 -16.192375 -11.241018 -0.262780 -4.068549 0.000000 0.000000 0.000000
5.097302 60.000738 9.444477 4.272419 -0.392488 -2.955349 4.272419 -0.392488 -2.955349 -0.602775 -1.249800 -2.669374 -1.241427 -3.061483 -2.654634 5.000000 0.000000 0.000000 5.951921 0.836215 1.920840 4.307634 -2.050859 -0.215977 0.000000 0.000000 0.000000 0.000000 0.000000 0.000000 -0.593117 0.368912 0.029958 -3.431706 0.026802 -0.177270 0.000000 0.000000 0.000000 0.000000 0.000000 0.000000 5.866677 -1.047754 8.164327 -10.976376 -1.640217 9.494181 0.000000 0.000000 0.000000 -3.194708 2.439614 -16.826035 -12.204997 -0.699907 -5.950764 0.000000 0.000000 0.000000
4.261646 60.001249 10.446084 5.034795 -0.070208 -0.085947 5.034795 -0.070208 -0.085947 -0.257763 -0.274318 -0.552970 -0.934174 -0.404827 -0.202983 5.000000 0.000000 0.000000 1.156619 0.130551 0.373912 -0.514215 -0.575698 0.143314 -65.993814 -25.777743 47.675218 0.000000 0.000000 0.000000 -8.336421 1.153602 4.468227 -1.354332 0.733935 -0.125489 40.334360 0.443946 24.205086 0.000000 0.000000 0.000000 4.019655 -1.107726 8.667708 -11.629723 -1.642092 10.543613 0.000000 0.000000 0.000000 -4.426682 2.584383 -18.296042 -13.726846 -0.450766 -4.949029 0.000000 0.000000 0.000000
3.534028 59.999997 10.882226 5.930808 0.254004 2.838445 5.930808 0.254004 2.838445 -0.125156 0.613951 1.545738 -0.492799 1.959424 2.046112 5.000000 0.000000 0.000000 -1.446140 0.174275 -1.232245 -1.724372 0.534361 0.094782 0.000000 0.000000 0.000000 0.000000 0.000000 0.000000 -8.208275 0.745946 5.423149 -1.999710 0.881243 -0.171278 0.000000 0.000000 0.000000 0.000000 0.000000 0.000000 2.533352 -1.251426 9.836461 -9.062911 -1.035405 12.872208 0.000000 0.000000 0.000000 -2.811179 2.797822 -19.456532 -11.481848 0.344003 -1.253533 0.000000 0.000000 0.000000
1.694793 59.998741 6.881416 4.619912 0.511112 4.792510 4.619912 0.511112 4.792510 -0.178927 0.762637 1.925675 -0.351267 2.221523 2.315427 5.000000 0.000000 0.000000 1.729898 0.139515 0.679290 1.384108 1.332537 -0.368361 0.000000 0.000000 0.000000 0.000000 0.000000 0.000000 -4.222959 0.060304 3.330921 1.616528 1.597610 0.024108 52.054652 -35.075898 -0.288327 0.000000 0.000000 0.000000 1.988256 -1.595884 12.359384 -3.956976 -0.184735 15.106190 0.000000 0.000000 0.000000 -1.029735 2.802765 -17.729766 -7.598849 1.273641 3.819758 0.000000 0.000000 0.000000
-0.754579 59.998111 2.424182 4.003601 0.676587 5.862180 4.003601 0.676587 5.862180 -0.852200 0.568925 1.586768 -1.410820 1.596126 1.758590 5.000000 0.000000 0.000000 5.116815 -0.615575 3.810668 5.558629 1.119178 -0.740507 0.000000 0.000000 0.000000 0.000000 0.000000 0.000000 -0.076953 -1.032322 2.245684 8.705399 2.036192 0.494672 0.000000 0.000000 0.000000 0.000000 0.000000 0.000000 2.234104 -1.670916 12.770504 1.383747 0.494101 15.067681 0.000000 0.000000 0.000000 -7.490024 2.350725 -11.703323 -6.716055 1.955236 7.560409 0.000000 0.000000 0.000000
-1.246800 59.997523 2.237534 2.697492 0.909035 7.085867 2.697492 0.909035 7.085867 -2.202616 0.456688 1.554862 -3.274560 1.247477 1.524690 5.000000 0.000000 0.000000 6.671773 -0.791479 4.860953 7.446419 1.687836 -1.003903 0.000000 0.000000 0.000000 0.000000 0.000000 0.000000 -1.008999 -1.004879 3.100397 10.264691 2.501085 0.591908 0.000000 0.000000 0.000000 0.000000 0.000000 0.000000 2.454126 -1.048855 7.927331 5.170669 0.988297 11.399732 0.000000 0.000000 0.000000 -15.777139 1.986957 -3.293258 -3.900240 1.072603 4.851117 0.000000 0.000000 0.000000
-0.919997 59.997337 5.143549 1.690818 0.989175 7.164687 1.690818 0.989175 7.164687 -2.504733 0.739878 2.191381 -3.545181 1.995814 2.195038 5.000000 0.000000 0.000000 7.661655 0.076139 3.959349 7.511945 2.203282 -1.079642 0.000000 0.000000 0.000000 0.000000 0.000000 0.000000 -4.900225 -1.169513 7.217621 4.515678 3.447540 0.138180 0.000000 0.000000 0.000000 0.000000 0.000000 0.000000 0.677164 -0.038575 0.529505 5.526687 1.193195 6.567267 0.000000 0.000000 0.000000 -15.418375 1.943861 -1.925264 -2.062924 0.877016 4.854824 0.000000 0.000000 0.000000
-0.580082 59.997274 7.274651 0.459107 0.978256 6.468673 0.459107 0.978256 6.468673 -2.349181 1.173595 3.093112 -3.064426 3.296941 3.359857 5.000000 0.000000 0.000000 5.573148 0.926583 1.534566 9.049833 2.480076 -1.265748 0.000000 0.000000 0.000000 0.000000 0.000000 0.000000 -8.997218 -1.644303 12.319432 3.429691 4.765310 0.026385 0.000000 0.000000 0.000000 0.000000 0.000000 0.000000 -0.069825 0.256099 -2.142990 6.121173 1.371509 4.399546 0.000000 0.000000 0.000000 -17.093612 2.135272 -2.639184 -3.141880 0.844190 3.990320 0.000000 0.000000 0.000000
-0.959493 59.997779 8.350624 0.984157 0.808940 5.569158 0.984157 0.808940 5.569158 -1.621648 1.414609 3.557470 -1.849566 4.354534 4.345841 5.000000 0.000000 0.000000 1.811921 1.420221 -1.350211 11.831084 1.443898 -1.389943 0.000000 0.000000 0.000000 0.000000 0.000000 0.000000 -6.187715 -1.910733 9.829515 7.254642 4.445657 0.382027 0.000000 0.000000 0.000000 0.000000 0.000000 0.000000 0.114844 0.209986 -1.661439 6.643997 1.385506 6.385784 0.000000 0.000000 0.000000 -19.993546 2.419155 -1.996684 -5.167909 1.087432 4.136638 0.000000 0.000000 0.000000
-1.173546 59.999849 9.339029 1.007447 0.663434 4.666966 1.007447 0.663434 4.666966 -1.731725 1.362715 3.448559 -1.814150 4.059909 4.066788 5.000000 0.000000 0.000000 0.197209 2.422536 -4.038347 13.068163 1.594713 -1.513335 0.000000 0.000000 0.000000 0.000000 0.000000 0.000000 -4.600826 -1.180211 6.473005 6.922160 4.208857 0.351185 0.000000 0.000000 0.000000 0.000000 0.000000 0.000000 0.598668 0.224547 -1.514453 7.596140 1.417695 10.186463 0.000000 0.000000 0.000000 -18.512898 2.234649 -0.908203 -4.675739 1.604283 7.381281 0.000000 0.000000 0.000000
